<svg xmlns="http://www.w3.org/2000/svg" height="40" viewBox="0 -960 960 960" width="40">
  <path d="M289.178-445.539 503.23-231.744q9.846 10.149 10.231 24.19.384 14.04-9.436 24.416-10.487 10.726-24.692 10.662-14.204-.064-24.025-10.551l-268.44-268.441q-6.225-5.558-8.995-12.541-2.769-6.983-2.769-15.692 0-8.043 2.769-14.991 2.77-6.949 8.995-12.507l269.774-269.774q10.23-10.231 24.178-10.423 13.949-.192 24.538 10.423 9.821 10.589 9.821 24.345 0 13.756-9.821 23.32l-216.18 216.181h478.693q13.865 0 23.663 9.799t9.798 23.666q0 14.533-9.798 24.328t-23.663 9.795H289.178Z" fill="#ffffff"/>
</svg>
